<svg xmlns="http://www.w3.org/2000/svg" width="161.24" height="42.746" viewBox="0 0 161.24 42.746">
  <path id="Path_1" data-name="Path 1" d="M3.828-2.03C3.828-.7,5.394,0,6.9,0,8.468,0,9.976-.7,9.976-2.03V-14.152l3.77-4.756L25.578-.986a2.512,2.512,0,0,0,2.2,1.16c1.74,0,3.6-1.508,3.6-3.016a1.91,1.91,0,0,0-.348-1.1L17.806-24.07,28.942-37.99a2.014,2.014,0,0,0,.464-1.218c0-1.566-1.972-3.19-3.538-3.19a1.932,1.932,0,0,0-1.74.87L9.976-22.794V-40.426c0-1.392-1.508-1.972-3.074-1.972-1.508,0-3.074.58-3.074,1.972ZM43.674-36.946H60.9c1.276,0,2.03-1.276,2.03-2.784,0-1.276-.638-2.668-2.03-2.668H40.252c-1.334,0-2.726.7-2.726,2.03V-2.03C37.526-.7,38.918,0,40.252,0H60.9c1.392,0,2.03-1.392,2.03-2.668,0-1.508-.754-2.784-2.03-2.784H43.674v-13.34h8.932a2.169,2.169,0,0,0,2.03-2.378,2.222,2.222,0,0,0-2.03-2.494H43.674ZM72.906-42.4c-1.624,0-2.726.928-2.726,1.972V-1.972C70.18-.928,71.282,0,72.906,0H83.172c7.366,0,13.05-3.538,13.05-12.934v-16.53c0-9.4-5.684-12.934-13.05-12.934Zm10.266,5.452c4.35,0,6.9,2.378,6.9,7.482v16.53c0,5.1-2.552,7.482-6.9,7.482H76.328V-36.946Zm42.05,6.206c.058,1.392,1.218,2.03,3.074,2.03,2.088,0,3.074-.58,3.074-3.19,0-6.148-5.22-10.5-13.166-10.5-7.018,0-12.876,3.538-12.876,12.934v16.878c0,9.4,5.8,12.934,12.818,12.934,7.946,0,13.224-4.466,13.224-10.846,0-2.552-.986-3.19-3.132-3.19-1.682,0-2.9.522-3.016,2.03-.232,2.552-.754,6.554-6.67,6.554-4.582,0-7.076-2.378-7.076-7.482V-29.464c0-5.1,2.494-7.482,6.96-7.482C124.41-36.946,125.106-32.77,125.222-30.74ZM152.018.348c7.308,0,13.05-3.538,13.05-12.934V-29.464c0-9.4-5.742-12.934-13.05-12.934-7.366,0-12.992,3.538-12.992,12.934v16.878C139.026-3.19,144.652.348,152.018.348Zm6.9-12.934c0,5.1-2.61,7.482-6.9,7.482-4.35,0-6.844-2.378-6.844-7.482V-29.464c0-5.1,2.494-7.482,6.844-7.482,4.292,0,6.9,2.378,6.9,7.482Z" transform="translate(-3.828 42.398)" fill="#fff"/>
</svg>
